{
    "asset" : {
        "generator" : "Khronos glTF Blender I/O v1.5.17",
        "version" : "2.0"
    },
    "scene" : 0,
    "scenes" : [
        {
            "name" : "Scene",
            "nodes" : [
                0,
                1,
                2
            ]
        }
    ],
    "nodes" : [
        {
            "name" : "Light",
            "rotation" : [
                0.16907575726509094,
                0.7558803558349609,
                -0.27217137813568115,
                0.570947527885437
            ],
            "translation" : [
                6.311707496643066,
                5.903861999511719,
                -1.4217263460159302
            ]
        },
        {
            "name" : "Camera",
            "rotation" : [
                0.483536034822464,
                0.33687159419059753,
                -0.20870360732078552,
                0.7804827094078064
            ],
            "translation" : [
                7.358891487121582,
                4.958309173583984,
                6.925790786743164
            ]
        },
        {
            "mesh" : 0,
            "name" : "Cube.001",
            "scale" : [
                1.3885406255722046,
                0.03725064545869827,
                0.5167306661605835
            ],
            "translation" : [
                -0.05186714231967926,
                -0.006654828786849976,
                -1.5460119247436523
            ]
        }
    ],
    "materials" : [
        {
            "doubleSided" : true,
            "name" : "Desk",
            "pbrMetallicRoughness" : {
                "baseColorTexture" : {
                    "index" : 0
                },
                "metallicFactor" : 0,
                "roughnessFactor" : 0.4000000059604645
            }
        },
        {
            "doubleSided" : true,
            "name" : "Book",
            "pbrMetallicRoughness" : {
                "baseColorTexture" : {
                    "index" : 1
                },
                "metallicFactor" : 0,
                "roughnessFactor" : 0.5
            }
        },
        {
            "doubleSided" : true,
            "name" : "Pencil",
            "pbrMetallicRoughness" : {
                "baseColorTexture" : {
                    "index" : 2
                },
                "metallicFactor" : 0,
                "roughnessFactor" : 0.5
            }
        },
        {
            "doubleSided" : true,
            "name" : "Material.002",
            "pbrMetallicRoughness" : {
                "baseColorTexture" : {
                    "index" : 3
                },
                "metallicFactor" : 0,
                "roughnessFactor" : 0.5
            }
        },
        {
            "doubleSided" : true,
            "name" : "Chair",
            "pbrMetallicRoughness" : {
                "baseColorTexture" : {
                    "index" : 4
                },
                "metallicFactor" : 0,
                "roughnessFactor" : 0.5
            }
        },
        {
            "doubleSided" : true,
            "name" : "Steel",
            "pbrMetallicRoughness" : {
                "baseColorFactor" : [
                    0.32105177640914917,
                    0.3399503231048584,
                    0.35883980989456177,
                    1
                ],
                "metallicFactor" : 0
            }
        }
    ],
    "meshes" : [
        {
            "name" : "Cube.006",
            "primitives" : [
                {
                    "attributes" : {
                        "POSITION" : 0,
                        "NORMAL" : 1,
                        "TEXCOORD_0" : 2
                    },
                    "indices" : 3
                },
                {
                    "attributes" : {
                        "POSITION" : 4,
                        "NORMAL" : 5,
                        "TEXCOORD_0" : 6
                    },
                    "indices" : 7,
                    "material" : 0
                },
                {
                    "attributes" : {
                        "POSITION" : 8,
                        "NORMAL" : 9,
                        "TEXCOORD_0" : 10
                    },
                    "indices" : 11,
                    "material" : 1
                },
                {
                    "attributes" : {
                        "POSITION" : 12,
                        "NORMAL" : 13,
                        "TEXCOORD_0" : 14
                    },
                    "indices" : 15,
                    "material" : 2
                },
                {
                    "attributes" : {
                        "POSITION" : 16,
                        "NORMAL" : 17,
                        "TEXCOORD_0" : 18
                    },
                    "indices" : 19,
                    "material" : 3
                },
                {
                    "attributes" : {
                        "POSITION" : 20,
                        "NORMAL" : 21,
                        "TEXCOORD_0" : 22
                    },
                    "indices" : 23,
                    "material" : 4
                },
                {
                    "attributes" : {
                        "POSITION" : 24,
                        "NORMAL" : 25,
                        "TEXCOORD_0" : 26
                    },
                    "indices" : 27,
                    "material" : 5
                }
            ]
        }
    ],
    "textures" : [
        {
            "sampler" : 0,
            "source" : 0
        },
        {
            "sampler" : 0,
            "source" : 1
        },
        {
            "sampler" : 0,
            "source" : 2
        },
        {
            "sampler" : 0,
            "source" : 3
        },
        {
            "sampler" : 0,
            "source" : 4
        }
    ],
    "images" : [
        {
            "bufferView" : 8,
            "mimeType" : "image/jpeg",
            "name" : "Desk_DK_Txt__Material_color"
        },
        {
            "bufferView" : 13,
            "mimeType" : "image/jpeg",
            "name" : "Book___color"
        },
        {
            "bufferView" : 18,
            "mimeType" : "image/jpeg",
            "name" : "Pencil_Txt___color"
        },
        {
            "bufferView" : 23,
            "mimeType" : "image/jpeg",
            "name" : "Laptop___color"
        },
        {
            "bufferView" : 28,
            "mimeType" : "image/jpeg",
            "name" : "Desk_Chair_DK_Txt__Steel_color"
        }
    ],
    "accessors" : [
        {
            "bufferView" : 0,
            "componentType" : 5126,
            "count" : 60,
            "max" : [
                0.9400672316551208,
                1,
                1
            ],
            "min" : [
                -0.8834226727485657,
                -1,
                -1
            ],
            "type" : "VEC3"
        },
        {
            "bufferView" : 1,
            "componentType" : 5126,
            "count" : 60,
            "type" : "VEC3"
        },
        {
            "bufferView" : 2,
            "componentType" : 5126,
            "count" : 60,
            "type" : "VEC2"
        },
        {
            "bufferView" : 3,
            "componentType" : 5123,
            "count" : 156,
            "type" : "SCALAR"
        },
        {
            "bufferView" : 4,
            "componentType" : 5126,
            "count" : 2364,
            "max" : [
                1.0297991037368774,
                47.289207458496094,
                1.097259521484375
            ],
            "min" : [
                -0.9631397128105164,
                -13.10858154296875,
                -1.100973129272461
            ],
            "type" : "VEC3"
        },
        {
            "bufferView" : 5,
            "componentType" : 5126,
            "count" : 2364,
            "type" : "VEC3"
        },
        {
            "bufferView" : 6,
            "componentType" : 5126,
            "count" : 2364,
            "type" : "VEC2"
        },
        {
            "bufferView" : 7,
            "componentType" : 5123,
            "count" : 3948,
            "type" : "SCALAR"
        },
        {
            "bufferView" : 9,
            "componentType" : 5126,
            "count" : 104,
            "max" : [
                -0.10654504597187042,
                48.852848052978516,
                0.44185900688171387
            ],
            "min" : [
                -0.37342846393585205,
                47.483211517333984,
                -0.5970933437347412
            ],
            "type" : "VEC3"
        },
        {
            "bufferView" : 10,
            "componentType" : 5126,
            "count" : 104,
            "type" : "VEC3"
        },
        {
            "bufferView" : 11,
            "componentType" : 5126,
            "count" : 104,
            "type" : "VEC2"
        },
        {
            "bufferView" : 12,
            "componentType" : 5123,
            "count" : 156,
            "type" : "SCALAR"
        },
        {
            "bufferView" : 14,
            "componentType" : 5126,
            "count" : 704,
            "max" : [
                0.05715017020702362,
                48.03036117553711,
                0.5520208477973938
            ],
            "min" : [
                -0.07443492114543915,
                47.128196716308594,
                -0.28362712264060974
            ],
            "type" : "VEC3"
        },
        {
            "bufferView" : 15,
            "componentType" : 5126,
            "count" : 704,
            "type" : "VEC3"
        },
        {
            "bufferView" : 16,
            "componentType" : 5126,
            "count" : 704,
            "type" : "VEC2"
        },
        {
            "bufferView" : 17,
            "componentType" : 5123,
            "count" : 1140,
            "type" : "SCALAR"
        },
        {
            "bufferView" : 19,
            "componentType" : 5126,
            "count" : 64,
            "max" : [
                0.7466354370117188,
                62.68358612060547,
                0.5077046155929565
            ],
            "min" : [
                0.16279879212379456,
                47.29762649536133,
                -0.6791520714759827
            ],
            "type" : "VEC3"
        },
        {
            "bufferView" : 20,
            "componentType" : 5126,
            "count" : 64,
            "type" : "VEC3"
        },
        {
            "bufferView" : 21,
            "componentType" : 5126,
            "count" : 64,
            "type" : "VEC2"
        },
        {
            "bufferView" : 22,
            "componentType" : 5123,
            "count" : 108,
            "type" : "SCALAR"
        },
        {
            "bufferView" : 24,
            "componentType" : 5126,
            "count" : 1812,
            "max" : [
                0.3348807692527771,
                47.33047103881836,
                3.4029200077056885
            ],
            "min" : [
                -0.22488969564437866,
                -12.968108177185059,
                1.8010390996932983
            ],
            "type" : "VEC3"
        },
        {
            "bufferView" : 25,
            "componentType" : 5126,
            "count" : 1812,
            "type" : "VEC3"
        },
        {
            "bufferView" : 26,
            "componentType" : 5126,
            "count" : 1812,
            "type" : "VEC2"
        },
        {
            "bufferView" : 27,
            "componentType" : 5123,
            "count" : 3054,
            "type" : "SCALAR"
        },
        {
            "bufferView" : 29,
            "componentType" : 5126,
            "count" : 221,
            "max" : [
                0.35205569863319397,
                2.990121364593506,
                3.4471607208251953
            ],
            "min" : [
                -0.2349870502948761,
                1.5265274047851562,
                1.8696800470352173
            ],
            "type" : "VEC3"
        },
        {
            "bufferView" : 30,
            "componentType" : 5126,
            "count" : 221,
            "type" : "VEC3"
        },
        {
            "bufferView" : 31,
            "componentType" : 5126,
            "count" : 221,
            "type" : "VEC2"
        },
        {
            "bufferView" : 32,
            "componentType" : 5123,
            "count" : 1152,
            "type" : "SCALAR"
        }
    ],
    "bufferViews" : [
        {
            "buffer" : 0,
            "byteLength" : 720,
            "byteOffset" : 0
        },
        {
            "buffer" : 0,
            "byteLength" : 720,
            "byteOffset" : 720
        },
        {
            "buffer" : 0,
            "byteLength" : 480,
            "byteOffset" : 1440
        },
        {
            "buffer" : 0,
            "byteLength" : 312,
            "byteOffset" : 1920
        },
        {
            "buffer" : 0,
            "byteLength" : 28368,
            "byteOffset" : 2232
        },
        {
            "buffer" : 0,
            "byteLength" : 28368,
            "byteOffset" : 30600
        },
        {
            "buffer" : 0,
            "byteLength" : 18912,
            "byteOffset" : 58968
        },
        {
            "buffer" : 0,
            "byteLength" : 7896,
            "byteOffset" : 77880
        },
        {
            "buffer" : 0,
            "byteLength" : 73172,
            "byteOffset" : 85776
        },
        {
            "buffer" : 0,
            "byteLength" : 1248,
            "byteOffset" : 158948
        },
        {
            "buffer" : 0,
            "byteLength" : 1248,
            "byteOffset" : 160196
        },
        {
            "buffer" : 0,
            "byteLength" : 832,
            "byteOffset" : 161444
        },
        {
            "buffer" : 0,
            "byteLength" : 312,
            "byteOffset" : 162276
        },
        {
            "buffer" : 0,
            "byteLength" : 108171,
            "byteOffset" : 162588
        },
        {
            "buffer" : 0,
            "byteLength" : 8448,
            "byteOffset" : 270760
        },
        {
            "buffer" : 0,
            "byteLength" : 8448,
            "byteOffset" : 279208
        },
        {
            "buffer" : 0,
            "byteLength" : 5632,
            "byteOffset" : 287656
        },
        {
            "buffer" : 0,
            "byteLength" : 2280,
            "byteOffset" : 293288
        },
        {
            "buffer" : 0,
            "byteLength" : 106057,
            "byteOffset" : 295568
        },
        {
            "buffer" : 0,
            "byteLength" : 768,
            "byteOffset" : 401628
        },
        {
            "buffer" : 0,
            "byteLength" : 768,
            "byteOffset" : 402396
        },
        {
            "buffer" : 0,
            "byteLength" : 512,
            "byteOffset" : 403164
        },
        {
            "buffer" : 0,
            "byteLength" : 216,
            "byteOffset" : 403676
        },
        {
            "buffer" : 0,
            "byteLength" : 77648,
            "byteOffset" : 403892
        },
        {
            "buffer" : 0,
            "byteLength" : 21744,
            "byteOffset" : 481540
        },
        {
            "buffer" : 0,
            "byteLength" : 21744,
            "byteOffset" : 503284
        },
        {
            "buffer" : 0,
            "byteLength" : 14496,
            "byteOffset" : 525028
        },
        {
            "buffer" : 0,
            "byteLength" : 6108,
            "byteOffset" : 539524
        },
        {
            "buffer" : 0,
            "byteLength" : 111993,
            "byteOffset" : 545632
        },
        {
            "buffer" : 0,
            "byteLength" : 2652,
            "byteOffset" : 657628
        },
        {
            "buffer" : 0,
            "byteLength" : 2652,
            "byteOffset" : 660280
        },
        {
            "buffer" : 0,
            "byteLength" : 1768,
            "byteOffset" : 662932
        },
        {
            "buffer" : 0,
            "byteLength" : 2304,
            "byteOffset" : 664700
        }
    ],
    "samplers" : [
        {
            "magFilter" : 9729,
            "minFilter" : 9987
        }
    ],
    "buffers" : [
        {
            "byteLength" : 667004,
            "uri" : "data:application/octet-stream;base64,"
        }
    ]
}
